<svg xmlns="http://www.w3.org/2000/svg" width="602" height="734" viewBox="0 0 602 734" id="neovim">
  <defs>
    <linearGradient id="linearGradient-1" x1="50%" x2="50%" y1="0%" y2="100%">
      <stop offset="0%" stop-color="#16B0ED" stop-opacity=".8"></stop>
      <stop offset="100%" stop-color="#0F59B2" stop-opacity=".837"></stop>
    </linearGradient>
    <linearGradient id="linearGradient-2" x1="50%" x2="50%" y1="0%" y2="100%">
      <stop offset="0%" stop-color="#7DB643"></stop>
      <stop offset="100%" stop-color="#367533"></stop>
    </linearGradient>
    <linearGradient id="linearGradient-3" x1="50%" x2="50%" y1="0%" y2="100%">
      <stop offset="0%" stop-color="#88C649" stop-opacity=".8"></stop>
      <stop offset="100%" stop-color="#439240" stop-opacity=".84"></stop>
    </linearGradient>
  </defs>
  <g id="Page-1" fill="none" fill-rule="evenodd" stroke="none" stroke-width="1">
    <g id="mark-copy" transform="translate(2 3)">
      <path id="Left---green" fill="url(#linearGradient-1)" d="M0,155.5704 L155,-1 L154.999997,727 L0,572.237919 L0,155.5704 Z"></path>
      <path id="Right---blue" fill="url(#linearGradient-2)" d="M443.060403,156.982405 L600,-1 L596.818792,727 L442,572.219941 L443.060403,156.982405 Z" transform="matrix(-1 0 0 1 1042 0)"></path>
      <path id="Cross---blue" fill="url(#linearGradient-3)" d="M154.986294,0 L558,615.189696 L445.224605,728 L42,114.172017 L154.986294,0 Z"></path>
      <path id="Shadow" fill="#000" fill-opacity=".13" d="M155,283.83232 L154.786754,308 L31,124.710606 L42.4619486,113 L155,283.83232 Z"></path>
    </g>
  </g>
</svg>
